# xmcd CD database file
#
# Track frame offsets:
#	182
#	23730
#	39372
#	57702
#	79442
#	106492
#	122790
#	141357
#
# Disc length: 2150 seconds
#
# Revision: 0
# Processed by: cddbd v1.4PL0 Copyright (c) Steve Scherf et al.
# Submitted via: CDex 1.50Beta6
#
DISCID=71086408
DTITLE=Gil Scott-Heron and Brian Jackson - 1980
DYEAR=1900
DGENRE=Jazz
TTITLE0=Shut 'um Down
TTITLE1=Alien (Hold On To Your Dreams)
TTITLE2=Willing
TTITLE3=Corners
TTITLE4=1980
TTITLE5=Push Comes To Shove
TTITLE6=Shah Mot (The Shah Is Dead - Checkmate)
TTITLE7=Late Last Night
EXTD=
EXTT0=
EXTT1=
EXTT2=
EXTT3=
EXTT4=
EXTT5=
EXTT6=
EXTT7=
PLAYORDER=
